<?xml version="1.0" encoding="UTF-8"?>
<svg id="Layer_1" data-name="Layer 1" xmlns="http://www.w3.org/2000/svg" viewBox="0 0 160 160">
  <defs>
    <style>
      .cls-1 {
        fill: #0b0ba6;
      }

      .cls-2 {
        fill: #eeeef8;
      }

      .cls-3 {
        fill: #fde7b0;
      }

      .cls-4 {
        fill: #fdfdfe;
      }

      .cls-5 {
        fill: #f5f5fa;
      }

      .cls-6 {
        fill: #0707a5;
      }

      .cls-7 {
        fill: #0909a6;
      }

      .cls-8 {
        fill: #ededf8;
      }

      .cls-9 {
        fill: #fbc12d;
      }

      .cls-10 {
        fill: #fbca4a;
      }

      .cls-11 {
        fill: #dfdff3;
      }

      .cls-12 {
        fill: #0606a4;
      }

      .cls-13 {
        fill: #0e0ea7;
      }

      .cls-14 {
        fill: #0404a4;
      }

      .cls-15 {
        fill: #fefefe;
      }

      .cls-16 {
        fill: #e7e7f6;
      }

      .cls-17 {
        fill: #dcdcf1;
      }

      .cls-18 {
        fill: #fddc8a;
      }

      .cls-19 {
        fill: #1a1aac;
      }

      .cls-20 {
        fill: #0000a2;
      }

      .cls-21 {
        fill: #0303a3;
      }

      .cls-22 {
        fill: #dedef2;
      }

      .cls-23 {
        fill: #0505a4;
      }

      .cls-24 {
        fill: #ececf7;
      }
    </style>
  </defs>
  <rect class="cls-15" width="160.67" height="160"/>
  <path class="cls-20" d="M138.63,106.56h-14.05v-24.8c0-.76-1.73-3.4-2.44-3.95-2.37-1.83-7.06-1.88-9.23.26-.83.82-2.06,3.55-2.06,4.65v23.84h-13.73v-24.48c0-.2-.61-1.76-.78-2.1-1.98-4.21-8.91-4.9-11.42-.84-.29.47-1.22,2.54-1.22,2.94v24.48h-13.73v-40h13.73l.16,4.16c2.35-1.93,4.67-3.95,7.69-4.78,6.37-1.75,14.55.72,17.87,6.7,5.22-6.27,12.5-9.01,20.37-6,5.63,2.15,8.86,7.14,8.86,13.2v26.72Z"/>
  <path class="cls-20" d="M34.18,88.64c-.64,7.66,9.61,9.89,14.99,6.86,1-.56,3.12-3,3.68-3.01.51-.01,8.48,3.98,9.23,4.52.97.7-.46,2.22-1.08,2.99-11.53,14.36-39.82,8.35-41.21-11.5-1.87-26.68,38.85-31.9,43.31-6.91.15.86.97,7.06-.02,7.06h-28.91Z"/>
  <path class="cls-9" d="M50.15,64.32c13.04,1.74,24.38-3.99,29.06-16.48l-3.82-1.92,13.26-6.88,3.35,14.72c-1.01-.33-2.94-1.89-3.93-1.57-.28.09-2.93,4.05-3.56,4.77-9.21,10.42-22.68,12.99-35.3,7.68-.15-.35.16-.46.96-.32Z"/>
  <path class="cls-14" d="M42.8,115.52c2.75-.6,2.16,3.19,3.35,4.8,1.15-1.62.74-5.48,3.35-4.8v6.72c0,.06-1.23.05-1.28,0-.14-.13.1-3.24,0-3.84-.99.54-.85,3.85-2.07,3.85s-1.6-3.86-1.91-3.86c-.69,1.55.92,4.43-1.44,3.84v-6.72Z"/>
  <path class="cls-23" d="M101.57,116.48c.12.11-.74,2.57-.47,3.2-.26.87-2.62.62-2.41,1.43.12.48,3.03-.52,3.2,1.3.26,2.75-5.51,2.75-4.8.04.03-.13.95-1.57.9-2.24-.04-.61-.94-.98-.43-2.12.59-1.31,1.86-.79,2.82-.97.09-.02.59-1.18,1.17-.63Z"/>
  <path class="cls-23" d="M84.65,120.64c.28,1.07,2.78.41,3.15,1,1.25,2.02-2.38,3.83-4.28,2.21-1.39-1.19.49-1.57.5-1.8s-.32-.6-.3-.95c.07-1.24.25-.27-.02-1.92-.43-2.65,2.19-1.61,3.66-2.71.91.6,0,.68-.09,1.2s.26.96.2,1.46c-.16,1.33-1.77,1.36-2.81,1.51Z"/>
  <path class="cls-21" d="M94.5,115.57c.3.19,1.9,5.81,2.28,6.67-2.44.1-.74-2.04-4-1.62-1.14.15-.04,2.32-2.38,1.62.79-.78,2-6.46,2.27-6.68.12-.1,1.64-.11,1.84.01Z"/>
  <path class="cls-6" d="M60.37,115.2s1.23-.05,1.28,0c.14.13-.1,3.24,0,3.84,1.11-.63,1.23-2.33,2.87-1.92-2.06,2.61-1.51,2.65.32,5.11-1.91.54-1.76-1.2-3.19-1.92-.06,1.5.53,2.21-1.28,1.92.19-.94-.25-6.8,0-7.04Z"/>
  <path class="cls-6" d="M120.37,117.18c.63.37.83,4.37,1.73,2.74.6-1.1.39-3.56,2.17-2.63-.84,1.58-1.7,6.04-3.11,6.8-1.58.86-2.59-.34-2.01-.89.17-.16,1.89.42,1.91-.78.02-.83-2.22-5.04-1.91-5.3.38.04.92-.12,1.22.05Z"/>
  <path class="cls-23" d="M69.95,120c-.83-.1-4.54-.21-3,.98.98.76,2.32-.8,3-.02.44.5-2.83,2.49-4.16.49-2.61-3.92,4.41-6.82,4.16-1.45Z"/>
  <path class="cls-12" d="M107.01,120h-3.19c-.11.52.44,1.12.87,1.24,1.12.31,1.53-1.22,2.32-.11.24,1.32-3.66,1.88-4.28-.17-1.34-4.43,4.79-5.6,4.29-.95Z"/>
  <path class="cls-7" d="M77.62,117.12c1.14-.47,1.34.66,1.43.64.59-.12,2.14-1.53,2.88,0,.2.42.32,4.33.16,4.48-.05.04-1.23.04-1.27,0-.27-.26.51-3.88-.5-4.15-1.97-.52-1.24,3.98-1.42,4.15-.05.04-1.28.06-1.28,0v-5.12Z"/>
  <path class="cls-7" d="M108.28,117.12c1.14-.47,1.34.66,1.43.64.59-.12,2.14-1.53,2.88,0,.2.42.32,4.33.16,4.48-.05.04-1.23.04-1.27,0-.27-.26.51-3.88-.5-4.15-1.97-.52-1.24,3.98-1.42,4.15-.05.04-1.28.06-1.28,0v-5.12Z"/>
  <path class="cls-12" d="M55.58,122.24c-.68.33-1.49-.52-1.76-.52-.41,0-3.13,1.6-3.02-.93.08-1.9,3.61-1.01,2.7-2.71-1-.12-1.81.64-1.92.64-.92-.04-.43-1.54,1.29-1.61,2.79-.12,1.81,1.68,2.08,3.37.1.6.8,1.04.62,1.77Z"/>
  <path class="cls-14" d="M118.43,117.51c.31.27.48,1.1-.09,1.21-.72.14-1.38-.68-1.86-.6-1.13.2-1.22,2.82.02,3.12.79.19,1.65-1.43,2.33-.61.77.92-2.19,2.58-4,.97-2.78-2.48,1.49-5.96,3.6-4.09Z"/>
  <path class="cls-12" d="M72.47,116.21c.11.11-.07.77.05.88.19.19,1.14-.08,1.26.03.03.03.03.92,0,.96-.11.11-1.17-.11-1.28,0-.12.11-.22,2.9.52,3.14.46.15.61-.77,1.07.54-3.82,1.83-2.48-1.61-2.85-3.51-.07-.38-.86-.07-.98-.18-.49-.41.72-.87.87-1.06.16-.2.04-.72.12-.8.13-.11,1.1-.11,1.21,0Z"/>
  <path class="cls-1" d="M56.54,117.12c.71,0,1.37-.25,1.29.63,1.34-1.48,2.52.13,1.34.64-.38.17-1.06-.19-1.31.53-.5,1.42,1,3.88-1.32,3.32v-5.12Z"/>
  <path class="cls-13" d="M76.34,117.12v5.12c0,.06-1.28.06-1.28,0v-5.12c0-.06,1.05.04,1.28,0Z"/>
  <path class="cls-19" d="M76.34,115.2c.29.29.28,1.67-1.08,1.24-1.47-.46.51-1.81,1.08-1.24Z"/>
  <path class="cls-10" d="M48.87,64c.72.02,1.1.3,1.28.32l-.96.32c-.37-.16-.93-.15-1.28-.32-.4-.51.47-.56.96-.32Z"/>
  <path class="cls-18" d="M47.91,63.68c.29.09.7-.02.96.32-.36-.01-.79-.08-.96.32-.21-.1-.45-.2-.64-.32-.3-.37-.09-.48.64-.32Z"/>
  <path class="cls-3" d="M47.91,63.68l-.64.32c-.25-.16-.63-.27-.64-.64.57-.21.92.21,1.28.32Z"/>
  <path class="cls-4" d="M49.83,80.96h-15.33c.16-8.77,15.27-8.89,15.33,0Z"/>
  <path class="cls-22" d="M98.58,122.28c2.14-.6,2.79,1.29.92,1.27-.93,0-1.93-.98-.92-1.27Z"/>
  <path class="cls-16" d="M99.94,118.11c.56.43-.02,1.71-.75,1.57-.97-.19-.55-2.55.75-1.57Z"/>
  <path class="cls-17" d="M86.56,122.24c.32,1.47-1.48,1.72-2.23.79-.2-.96,1.66-.85,2.23-.79Z"/>
  <path class="cls-24" d="M84.97,118.08c.91-.68,1.92,1.36.79,1.6-.78.16-1.27-1.24-.79-1.6Z"/>
  <path class="cls-11" d="M94.55,119.68h-1.6c-.02-.88.14-1.91.8-2.56l.8,2.56Z"/>
  <path class="cls-8" d="M68.67,119.04h-1.91c-.06-1.35,1.97-1.35,1.91,0Z"/>
  <path class="cls-5" d="M106.05,119.04l-2.23-.16c.77-1.08,1.64-1.07,2.23.16Z"/>
  <path class="cls-2" d="M53.66,119.68c.5,2.37-2.22,1.6-1.45.63.24-.3,1.06-.39,1.45-.63Z"/>
</svg>