<?xml version="1.0" encoding="UTF-8"?>
<svg id="Layer_1" data-name="Layer 1" xmlns="http://www.w3.org/2000/svg" viewBox="0 0 160 160">
  <defs>
    <style>
      .cls-1 {
        fill: #4d3a7f;
      }

      .cls-2 {
        fill: #d8e8ee;
      }

      .cls-3 {
        fill: #4c397f;
      }

      .cls-4 {
        fill: #d9e8ee;
      }

      .cls-5 {
        fill: #2e186a;
      }

      .cls-6 {
        fill: #d7e6ec;
      }

      .cls-7 {
        fill: #d8e7ed;
      }

      .cls-8 {
        fill: #d8e8ed;
      }

      .cls-9 {
        fill: #d7e7ed;
      }
    </style>
  </defs>
  <path class="cls-5" d="M0,129.48V0h160v160h-95.26c.86-1.38,1.87-2.64,2.69-4.05,5.96-10.28,4.98-23.72-4.02-31.88-6.98-6.32-14.91-7.73-23.02-11.5-1.62-.76-3.41-1.69-4.54-3.09,6.81.02,13.63-.02,20.45,0l-4.22-22.52-.37-.07-8.38,6.6-8.95-6.67c-.94,4.94-1.88,9.88-2.82,14.81-4.59-.87-5.8,4.31-4.96,7.85,1.16,4.95,5.22,6.45,9.48,8,9.36,3.41,20.56,5.68,24.23,16.37,3.41,9.95-.34,22.13-12.67,20.96-13.14-1.24-23.67-12.38-34.89-18.3-1.57-.83-3.33-1.45-4.84-2.27-2.62-1.43-5.07-3.6-7.9-4.77ZM99.11,82.81l-11.34-22.52-11.63,22.52h22.96ZM112.59,71.41l-10.96-10.74-.3.15v21.78l.22.22h18.89v-21.78h-7.63l-.22.22v10.15ZM35.85,61.04h-16.74v21.78h16.52l.22-.22v-7.26l-.22-.22h-8.81v-2.52h7.26v-1.48h-7.26v-2.37h8.81l.22-.22v-7.48ZM57.63,61.04h-18.37v21.78h18.52l-7.23-12.05,7.08-9.73ZM60.3,82.81c4.88,0,10.93.61,14.37-3.63,2.76-3.41,3.01-9.97.57-13.6-3.22-4.8-9.78-4.68-14.94-4.54v21.78ZM142.52,61.04h-19.26v7.48l.22.22h5.7v14.07h7.85v-14.07h5.26l.22-.22v-7.48ZM131.26,109.48l-11.34-22.52-11.63,22.52h22.96ZM75.56,87.7h-16.74v21.78h16.74v-7.7h-8.81l-.22-.22v-2.3h7.19c.35-.32.35-1.16,0-1.48h-6.96l-.22-.22v-2.15h8.81l.22-.22v-7.48ZM79.11,109.48c4.21-.05,8.68.49,12.37-1.92,5.56-3.63,5.66-14.03.09-17.73-3.76-2.49-8.14-2.15-12.46-2.13v21.78ZM106.22,87.7h-7.85v21.78h7.85v-21.78Z"/>
  <path class="cls-1" d="M31.56,101.63c-.5,2.61-1.08,5.22-1.48,7.85,1.92,0,3.85,0,5.78,0,1.13,1.4,2.92,2.33,4.54,3.09,8.1,3.77,16.04,5.18,23.02,11.5,9,8.16,9.98,21.6,4.02,31.88-.82,1.41-1.84,2.67-2.69,4.05H0v-30.52c2.83,1.16,5.28,3.34,7.9,4.77,1.51.82,3.27,1.44,4.84,2.27,11.21,5.92,21.75,17.05,34.89,18.3,12.32,1.17,16.08-11.02,12.67-20.96-3.67-10.69-14.87-12.96-24.23-16.37-4.26-1.55-8.32-3.05-9.48-8-.83-3.54.37-8.72,4.96-7.85ZM14.48,146.11c-5.12.7-4.47,8.87,1.28,8.24,5.36-.59,4.57-9.04-1.28-8.24Z"/>
  <path class="cls-8" d="M31.56,101.63c.94-4.94,1.88-9.88,2.82-14.81l8.95,6.67,8.38-6.6.37.07,4.22,22.52c-6.81-.02-13.63.02-20.45,0-1.92,0-3.85,0-5.78,0,.4-2.63.99-5.24,1.48-7.85Z"/>
  <polygon class="cls-4" points="112.59 71.41 112.59 61.26 112.81 61.04 120.44 61.04 120.44 82.81 101.56 82.81 101.33 82.59 101.33 60.81 101.63 60.67 112.59 71.41"/>
  <polygon class="cls-8" points="57.63 61.04 50.55 70.76 57.78 82.81 39.26 82.81 39.26 61.04 57.63 61.04"/>
  <path class="cls-9" d="M75.56,87.7v7.48l-.22.22h-8.81v2.15l.22.22h6.96c.35.32.35,1.16,0,1.48h-7.19v2.3l.22.22h8.81v7.7h-16.74v-21.78h16.74Z"/>
  <polygon class="cls-8" points="35.85 61.04 35.85 68.52 35.63 68.74 26.81 68.74 26.81 71.11 34.07 71.11 34.07 72.59 26.81 72.59 26.81 75.11 35.63 75.11 35.85 75.33 35.85 82.59 35.63 82.81 19.11 82.81 19.11 61.04 35.85 61.04"/>
  <path class="cls-2" d="M60.3,82.81v-21.78c5.16-.14,11.72-.26,14.94,4.54,2.44,3.63,2.19,10.19-.57,13.6-3.44,4.24-9.49,3.64-14.37,3.63Z"/>
  <path class="cls-4" d="M79.11,109.48v-21.78c4.32-.02,8.7-.36,12.46,2.13,5.57,3.69,5.47,14.1-.09,17.73-3.69,2.41-8.16,1.88-12.37,1.92Z"/>
  <polygon class="cls-8" points="131.26 109.48 108.3 109.48 119.92 86.96 131.26 109.48"/>
  <polygon class="cls-8" points="99.11 82.81 76.15 82.81 87.78 60.3 99.11 82.81"/>
  <polygon class="cls-7" points="142.52 61.04 142.52 68.52 142.3 68.74 137.04 68.74 137.04 82.81 129.19 82.81 129.19 68.74 123.48 68.74 123.26 68.52 123.26 61.04 142.52 61.04"/>
  <rect class="cls-6" x="98.37" y="87.7" width="7.85" height="21.78"/>
  <path class="cls-5" d="M14.48,146.11c5.85-.79,6.64,7.66,1.28,8.24-5.75.63-6.4-7.55-1.28-8.24ZM14.77,149.07c-1.14.26-1.14,2.05,0,2.31,2.24.5,2.24-2.81,0-2.31Z"/>
  <path class="cls-3" d="M14.77,149.07c2.24-.5,2.24,2.81,0,2.31-1.14-.26-1.14-2.05,0-2.31Z"/>
</svg>